<?xml version="1.0" encoding="UTF-8"?><svg id="Layer_1" xmlns="http://www.w3.org/2000/svg" viewBox="0 0 159.3 159.2"><defs><style>.cls-1{fill:#015595;}</style></defs><path class="cls-1" d="M79.5,0C35.59,0,0,35.6,0,79.5s35.59,79.5,79.5,79.5,79.5-35.6,79.5-79.5S123.41,0,79.5,0Zm-27.33,39.75c4.11,0,7.45,3.34,7.45,7.45s-3.34,7.45-7.45,7.45-7.45-3.34-7.45-7.45,3.34-7.45,7.45-7.45Zm7.51,69.48h-14.89V59.61h14.89v49.62Zm59.6,0h-14.89v-27.05c0-5.55-1.61-11.1-8.14-11.1s-11.74,5.55-11.74,11.24v26.92h-14.94V59.45h14.94v6.91c4.59-5.82,11.05-8.46,18.27-8.46s16.49,3.61,16.49,23.17v28.16Z"/></svg>