<svg xmlns="http://www.w3.org/2000/svg" viewBox="0 0 187.9 153.59"><defs><style>.cls-1{fill:#b7bec0;}</style></defs><g id="Layer_2" data-name="Layer 2"><g id="Layer_1-2" data-name="Layer 1"><path class="cls-1" d="M176.5,15a33.63,33.63,0,0,0,6.3-12c-.9.5-1.6.8-2.2,1.1a75.21,75.21,0,0,1-20.4,7.7,3.15,3.15,0,0,1-3.2-.9c-10.3-9.6-22.5-13-36.1-9.7-13.2,3.3-22.2,11.6-27.1,24.4a37.76,37.76,0,0,0-1.6,20.5c.1.7.6,1.5-.9,1.4a115.63,115.63,0,0,1-28-5.4,110.66,110.66,0,0,1-44.9-28.4c-2-2.1-3.9-4.3-5.9-6.5a38.69,38.69,0,0,0-4.2,28c2.2,9.8,7.6,17.5,16.1,23.6A39.69,39.69,0,0,1,7,54a38.2,38.2,0,0,0,8.5,24.7,38.76,38.76,0,0,0,22.1,13.7c-.4.2-.5.2-.6.3a3.59,3.59,0,0,1-1.1.2,37.2,37.2,0,0,1-14.1.4c-1-.2-1.2,0-.8,1q7.35,19,27,24.6a45.66,45.66,0,0,0,8.7,1.2C39.6,133,20.8,138.23,0,136.33a86.58,86.58,0,0,0,13.3,7.4,111.21,111.21,0,0,0,42,9.8,111.26,111.26,0,0,0,45.7-7.8,103.75,103.75,0,0,0,46.2-36.3c14.9-20.8,22.3-43.9,21.7-69.6a2.53,2.53,0,0,1,1.2-2.4,76.16,76.16,0,0,0,13.6-13c1.5-1.8,2.8-3.7,4.2-5.6a81.68,81.68,0,0,1-21.1,5.3A52.36,52.36,0,0,0,176.5,15Z"/></g></g></svg>
