<svg xmlns="http://www.w3.org/2000/svg" viewBox="0 0 159.3 159.2"><defs><style>.cls-1{fill:#015595;}</style></defs><g id="Layer_2" data-name="Layer 2"><g id="Layer_1-2" data-name="Layer 1"><path class="cls-1" d="M159,7.2A9,9,0,0,0,150.5.1c-.6,0-1.3-.1-1.9-.1H10.3C9.7,0,9,.1,8.4.1,3.3.5,0,4.3,0,9.8V149.2c0,6.2,3.7,10,9.9,10H149.3c6.4,0,10-3.7,10-10.1V10.4C159.2,9.3,159.1,8.2,159,7.2ZM136,70.4c-.4,3.8-.4,7.7-.6,11.5-.1,2.1-.4,4.2-.5,6.3-.1,1.4-1,1.1-1.8,1.1-5.8,0-11.6.1-17.4-.1-2.2-.1-2.6.7-2.6,2.7.1,8.9,0,17.8,0,26.7h.1v27.1c0,1.6-.4,2.2-2.1,2.1-6-.1-12.1-.1-18.1,0-1.8,0-2.2-.6-2.2-2.3.1-17.9.1-35.7.1-53.6,0-2.7,0-2.7-2.8-2.7H77.2c-1.3,0-1.8-.3-1.8-1.7q.15-8.85,0-17.7c0-1.4.5-1.8,1.8-1.7,3.9.1,7.7-.1,11.6.1,1.7.1,2.2-.5,2.2-2.1-.1-5.3-.1-10.6,0-16,.1-13.8,7.8-23.2,21.2-26.2,5.8-1.3,11.7-.9,17.6-.6a1.27,1.27,0,0,1,.6.1c1.8.3,4.2-.6,5.1.9.8,1.2.3,3.4.2,5.1-.1,4.1-.3,8.1-.3,12.2,0,1.4-.4,1.9-1.9,1.9-3.9-.1-7.7-.1-11.6,0-6.2,0-8.6,2.2-8.8,8.3-.2,5,0,9.9-.1,14.9,0,1.5.8,1.5,1.9,1.5h18.9C135.7,68.1,136.2,68.5,136,70.4Z"/></g></g></svg>