<svg xmlns="http://www.w3.org/2000/svg" viewBox="0 0 168.6 169.06"><defs><style>.cls-1{fill:#015595;}</style></defs><g id="Layer_2" data-name="Layer 2"><g id="Layer_1-2" data-name="Layer 1"><path class="cls-1" d="M168.6,48.8V44.6c-1.7-2.5-1.3-5.5-2-8.2-5.1-20.5-20-33.4-41-35.6-.9-.1-2,.5-2.5-.8h-1.7c-1.7,1.5-3.4,1.1-5.1,0H50.6c-1.1,1.1-2.2,1.5-3.4,0H43.8c-3.1,2-6.9,1.6-10.2,2.7C15.8,8.3,5.2,20.2,1.6,38.5c-.3,1.8.1,3.9-1.6,5.3v3.4c1.5,1.7,1.1,3.4,0,5.1v64c1.1,1.7,1.5,3.4,0,5.1v3.4c2.2,3.5,1.9,7.6,3.1,11.4,5.2,17.1,19.6,29.9,40.4,31.4a568.44,568.44,0,0,0,81.5,0c21.2-1.6,38.8-14.6,42.6-41.2.1-.9-.4-2,.9-2.5v-4.2c-1.6-1.7-.8-3.4,0-5.1V52.3C167.6,51,167.1,49.9,168.6,48.8Zm-15.9,71.7c-.8,19.2-12.8,31.2-32,32-12.2.5-24.4.8-36.6.7-12.1.1-24.1-.2-36.2-.7-19.1-.8-31.1-12.9-31.8-32.1q-1.5-36.15,0-72.4c.8-19.3,12.8-31.4,32.2-32.1q36.15-1.5,72.4,0c19.1.8,31.3,12.7,32,31.8Q154.05,84,152.7,120.5Z"/><path class="cls-1" d="M84.3,40.7a43.4,43.4,0,1,0,43.4,43.6A43.62,43.62,0,0,0,84.3,40.7Zm.1,71.3A27.74,27.74,0,0,1,56.5,84c0-15.5,12.5-27.7,28.2-27.6a27.8,27.8,0,0,1-.3,55.6Z"/><path class="cls-1" d="M129.3,28.9A10.38,10.38,0,0,0,119,39a10.59,10.59,0,0,0,10.3,10.5,10.4,10.4,0,0,0,10.2-10.6A10.27,10.27,0,0,0,129.3,28.9Z"/></g></g></svg>